# Blender v2.79 (sub 0) OBJ File: 'houses.blend'
# www.blender.org
mtllib roof1.mtl
o Cube_Cube.004
v 0.000000 0.000000 -2.000000
v 0.000000 0.101865 -2.000000
v 0.000000 0.000000 -3.000000
v 0.000000 0.101865 -3.000000
v 1.000000 0.000000 -2.000000
v 1.000000 0.101865 -2.000000
v 1.000000 0.000000 -3.000000
v 1.000000 0.101865 -3.000000
v 0.000000 0.216978 -2.500000
v 0.000000 0.318843 -2.500000
v 1.000000 0.216978 -2.500000
v 1.000000 0.318843 -2.500000
v 0.000000 -0.029520 -1.931708
v 0.000000 0.072345 -1.931708
v 0.000000 0.072345 -3.068292
v 0.000000 -0.029520 -3.068292
v 1.000000 -0.029520 -3.068292
v 1.000000 0.072345 -3.068292
v 1.000000 0.072345 -1.931708
v 1.000000 -0.029520 -1.931708
v -0.100792 0.216978 -2.500000
v -0.100792 0.000000 -2.000000
v -0.100792 0.101865 -2.000000
v -0.100792 0.318843 -2.500000
v -0.100792 0.101865 -3.000000
v -0.100792 0.000000 -3.000000
v 1.100792 0.101865 -3.000000
v 1.100792 0.000000 -3.000000
v 1.100792 0.216978 -2.500000
v 1.100792 0.318843 -2.500000
v 1.100792 0.101865 -2.000000
v 1.100792 0.000000 -2.000000
v -0.100792 -0.029520 -1.931708
v -0.100792 0.072345 -1.931708
v -0.100792 0.072345 -3.068292
v -0.100792 -0.029520 -3.068292
v 1.100792 0.072345 -3.068292
v 1.100792 -0.029520 -3.068292
v 1.100792 0.072345 -1.931708
v 1.100792 -0.029520 -1.931708
v 0.000000 -0.000000 -2.500000
v 0.000000 -0.000000 -2.000000
v 1.000000 -0.000000 -3.000000
v 0.000000 -0.000000 -3.000000
v 1.000000 -0.000000 -2.500000
v 1.000000 -0.000000 -2.000000
vn 0.0000 -0.9179 -0.3968
vn 0.0000 0.9173 0.3981
vn 0.0000 0.9179 -0.3968
vn 0.0000 0.0000 1.0000
vn 0.0000 0.9173 -0.3981
vn -1.0000 0.0000 0.0000
vn 0.0000 -0.9173 0.3981
vn 0.0000 0.0000 -1.0000
vn 0.0000 0.9179 0.3968
vn 0.0000 -0.9179 0.3968
vn 1.0000 0.0000 0.0000
vn 0.0000 -0.9173 -0.3981
vn 0.0000 -1.0000 0.0000
usemtl None
s off
f 1//1 13//1 33//1 22//1
f 1//1 5//1 20//1 13//1
f 2//2 10//2 24//2 23//2
f 4//3 15//3 35//3 25//3
f 5//4 1//4 42//4 46//4
f 12//2 10//2 2//2 6//2
f 8//5 4//5 10//5 12//5
f 9//6 3//6 44//6 41//6
f 13//4 14//4 34//4 33//4
f 3//7 9//7 21//7 26//7
f 16//8 15//8 18//8 17//8
f 20//4 19//4 14//4 13//4
f 6//9 19//9 39//9 31//9
f 7//10 3//10 16//10 17//10
f 6//9 2//9 14//9 19//9
f 16//10 3//10 26//10 36//10
f 4//3 8//3 18//3 15//3
f 19//4 20//4 40//4 39//4
f 21//6 24//6 25//6 26//6
f 29//11 30//11 31//11 32//11
f 23//6 22//6 33//6 34//6
f 28//11 27//11 30//11 29//11
f 22//6 23//6 24//6 21//6
f 27//11 28//11 38//11 37//11
f 32//11 31//11 39//11 40//11
f 26//6 25//6 35//6 36//6
f 15//8 16//8 36//8 35//8
f 5//12 11//12 29//12 32//12
f 14//9 2//9 23//9 34//9
f 11//7 7//7 28//7 29//7
f 9//12 1//12 22//12 21//12
f 8//5 12//5 30//5 27//5
f 20//1 5//1 32//1 40//1
f 12//2 6//2 31//2 30//2
f 7//10 17//10 38//10 28//10
f 17//8 18//8 37//8 38//8
f 10//5 4//5 25//5 24//5
f 18//3 8//3 27//3 37//3
f 41//13 45//13 46//13 42//13
f 44//13 43//13 45//13 41//13
f 3//8 7//8 43//8 44//8
f 1//6 9//6 41//6 42//6
f 7//11 11//11 45//11 43//11
f 11//11 5//11 46//11 45//11
o Shed_Cube.002
v 0.000000 0.000000 0.000000
v 0.000000 1.000000 0.000000
v 0.000000 0.000000 -1.000000
v 0.000000 1.000000 -1.000000
v 1.000000 0.000000 0.000000
v 1.000000 1.000000 0.000000
v 1.000000 0.000000 -1.000000
v 1.000000 1.000000 -1.000000
v 0.000000 0.000000 -0.735193
v 0.000000 0.000000 -0.264807
v 0.000000 1.000000 -0.264807
v 0.000000 1.000000 -0.735193
v 1.000000 0.000000 -0.264807
v 1.000000 0.000000 -0.735193
v 1.000000 1.000000 -0.735193
v 1.000000 1.000000 -0.264807
v 0.000000 0.814354 0.000000
v 0.000000 0.814354 -1.000000
v 1.000000 0.814354 -1.000000
v 1.000000 0.814354 0.000000
v 1.000000 0.814354 -0.735193
v 1.000000 0.814354 -0.264807
v 0.000000 0.814354 -0.264807
v 0.000000 0.814354 -0.735193
v 0.000000 0.038769 -1.000000
v 1.000000 0.038769 -1.000000
v 1.000000 0.038769 0.000000
v 1.000000 0.038769 -0.735193
v 1.000000 0.038769 -0.264807
v 0.000000 0.038769 -0.264807
v 0.000000 0.038769 -0.735193
v 0.000000 0.038769 0.000000
v -0.044542 -0.001727 -0.264807
v -0.044542 -0.001727 0.044542
v -0.044542 0.040496 -1.044542
v -0.044542 -0.001727 -1.044542
v 1.044542 -0.001727 -1.044542
v 1.044542 0.040496 -1.044542
v 1.044542 -0.001727 -0.735193
v 1.044542 0.040496 0.044542
v 1.044542 -0.001727 0.044542
v -0.044542 -0.001727 -0.735193
v 1.044542 -0.001727 -0.264807
v 1.044542 0.040496 -0.735193
v 1.044542 0.040496 -0.264807
v -0.044542 0.040496 -0.264807
v -0.044542 0.040496 -0.735193
v -0.044542 0.040496 0.044542
vn -1.0000 0.0000 0.0000
vn 0.0000 0.0000 -1.0000
vn 1.0000 0.0000 0.0000
vn 0.0000 0.0000 1.0000
vn 0.0000 -1.0000 0.0000
vn 0.0000 1.0000 0.0000
vn 0.0387 0.9992 0.0000
vn 0.0387 -0.9992 0.0000
vn -0.0387 -0.9992 -0.0000
vn 0.0000 0.9992 0.0387
vn -0.0387 0.9992 0.0000
vn 0.0000 -0.9992 -0.0387
vn 0.0000 0.9992 -0.0387
vn 0.0000 -0.9992 0.0387
usemtl None
s off
f 70//14 58//14 50//14 64//14
f 64//15 50//15 54//15 65//15
f 68//16 62//16 52//16 66//16
f 66//17 52//17 48//17 63//17
f 56//18 59//18 51//18 47//18
f 62//19 57//19 48//19 52//19
f 54//19 50//19 58//19 61//19
f 61//19 58//19 57//19 62//19
f 49//18 53//18 60//18 55//18
f 55//18 60//18 59//18 56//18
f 65//16 54//16 61//16 67//16
f 67//16 61//16 62//16 68//16
f 63//14 48//14 57//14 69//14
f 69//14 57//14 58//14 70//14
f 76//14 69//14 70//14 77//14
f 78//14 63//14 69//14 76//14
f 77//20 71//20 81//20 93//20
f 72//16 65//16 67//16 74//16
f 73//17 66//17 63//17 78//17
f 75//16 68//16 66//16 73//16
f 71//15 64//15 65//15 72//15
f 77//14 70//14 64//14 71//14
f 56//21 47//21 80//21 79//21
f 60//22 53//22 83//22 85//22
f 76//20 77//20 93//20 92//20
f 55//21 56//21 79//21 88//21
f 78//20 76//20 92//20 94//20
f 49//21 55//21 88//21 82//21
f 88//14 93//14 81//14 82//14
f 82//15 81//15 84//15 83//15
f 89//16 91//16 86//16 87//16
f 87//17 86//17 94//17 80//17
f 83//16 84//16 90//16 85//16
f 80//14 94//14 92//14 79//14
f 79//14 92//14 93//14 88//14
f 51//22 59//22 89//22 87//22
f 71//23 72//23 84//23 81//23
f 74//17 60//17 85//17 90//17
f 75//24 73//24 86//24 91//24
f 47//25 51//25 87//25 80//25
f 59//15 75//15 91//15 89//15
f 73//26 78//26 94//26 86//26
f 53//27 49//27 82//27 83//27
f 72//24 74//24 90//24 84//24
o Reference_Cube_Cube
v 0.000000 0.000000 0.000000
v 0.000000 1.000000 0.000000
v 0.000000 0.000000 -1.000000
v 0.000000 1.000000 -1.000000
v 1.000000 0.000000 0.000000
v 1.000000 1.000000 0.000000
v 1.000000 0.000000 -1.000000
v 1.000000 1.000000 -1.000000
vn -1.0000 0.0000 0.0000
vn 0.0000 0.0000 -1.0000
vn 1.0000 0.0000 0.0000
vn 0.0000 0.0000 1.0000
vn 0.0000 -1.0000 0.0000
vn 0.0000 1.0000 0.0000
usemtl None
s off
f 95//28 96//28 98//28 97//28
f 97//29 98//29 102//29 101//29
f 101//30 102//30 100//30 99//30
f 99//31 100//31 96//31 95//31
f 97//32 101//32 99//32 95//32
f 102//33 98//33 96//33 100//33
