# Blender v2.79 (sub 0) OBJ File: 'houses.blend'
# www.blender.org
mtllib default-house.mtl
o Cube_Cube.001
v -1.000000 -1.000000 1.000000
v -1.000000 1.000000 1.000000
v -1.000000 -1.000000 -1.000000
v -1.000000 1.000000 -1.000000
v 1.000000 -1.000000 1.000000
v 1.000000 1.000000 1.000000
v 1.000000 -1.000000 -1.000000
v 1.000000 1.000000 -1.000000
v -1.000000 -1.000000 0.000000
v -1.000000 1.544637 0.000000
v 1.000000 -1.000000 0.000000
v 1.000000 1.544637 0.000000
v -1.000000 0.900282 1.000000
v -1.000000 0.900282 -1.000000
v 1.000000 0.900282 -1.000000
v 1.000000 0.900282 1.000000
v 1.000000 1.417764 0.000000
v -1.000000 1.417764 0.000000
v -1.131895 0.900282 1.000000
v -1.131895 1.000000 1.000000
v -1.131895 1.544637 0.000000
v -1.131895 1.000000 -1.000000
v 1.131895 1.544637 0.000000
v 1.131895 1.000000 1.000000
v 1.131895 1.000000 -1.000000
v -1.131895 0.900282 -1.000000
v 1.131895 0.900282 -1.000000
v 1.131895 0.900282 1.000000
v 1.131895 1.417764 0.000000
v -1.131895 1.417764 0.000000
v -1.000000 0.814210 1.165898
v -1.000000 0.913928 1.165898
v -1.000000 0.913928 -1.165898
v 1.000000 0.913928 -1.165898
v 1.000000 0.913928 1.165898
v -1.000000 0.814210 -1.165898
v 1.000000 0.814210 -1.165898
v 1.000000 0.814210 1.165898
v 1.131895 0.814210 -1.165898
v -1.131895 0.814210 1.165898
v -1.131895 0.913928 1.165898
v -1.131895 0.913928 -1.165898
v -1.131895 0.814210 -1.165898
v 1.131895 0.913928 -1.165898
v 1.131895 0.913928 1.165898
v 1.131895 0.814210 1.165898
v -1.000000 -1.000000 0.500000
v 1.000000 1.272318 0.500000
v -1.000000 1.272318 0.500000
v 1.000000 -1.000000 0.500000
v -1.000000 1.159023 0.500000
v 1.000000 1.159023 0.500000
v 1.131895 1.272318 0.500000
v -1.131895 1.272318 0.500000
v -1.131895 1.159023 0.500000
v 1.131895 1.159023 0.500000
v -1.000000 1.272318 -0.500000
v 1.000000 -1.000000 -0.500000
v -1.000000 -1.000000 -0.500000
v 1.000000 1.272318 -0.500000
v 1.000000 1.159023 -0.500000
v -1.000000 1.159023 -0.500000
v -1.131895 1.272318 -0.500000
v 1.131895 1.272318 -0.500000
v 1.131895 1.159023 -0.500000
v -1.131895 1.159023 -0.500000
v -1.000000 -0.049859 -1.000000
v 1.000000 -0.049859 -1.000000
v 1.000000 -0.049859 1.000000
v 1.000000 0.506323 0.000000
v -1.000000 0.208882 0.000000
v -1.000000 -0.049859 1.000000
v 1.000000 0.506323 0.500000
v -1.000000 0.079511 0.500000
v -1.000000 0.079511 -0.500000
v 1.000000 0.506323 -0.500000
vn 1.0000 0.0000 0.0000
vn 0.0000 0.8876 -0.4605
vn 0.0000 -0.8876 0.4605
vn 0.0000 -1.0000 0.0000
vn 0.0000 0.8782 0.4783
vn 0.0000 0.8782 -0.4783
vn 0.0000 -0.8881 0.4596
vn -1.0000 0.0000 0.0000
vn 0.0000 0.0000 1.0000
vn 0.0000 0.0000 -1.0000
vn 0.0000 -0.8881 -0.4596
vn 0.0000 0.8876 0.4605
vn 0.0000 -0.8876 -0.4605
usemtl None
s off
f 28//1 24//1 45//1 46//1
f 8//2 25//2 44//2 34//2
f 25//1 27//1 39//1 44//1
f 15//3 14//3 36//3 37//3
f 47//4 50//4 5//4 1//4
f 48//5 49//5 2//5 6//5
f 60//6 57//6 10//6 12//6
f 59//4 58//4 11//4 9//4
f 62//7 18//7 30//7 66//7
f 61//7 15//7 27//7 65//7
f 74//8 51//8 18//8 71//8
f 76//1 61//1 17//1 70//1
f 69//9 16//9 13//9 72//9
f 73//1 52//1 16//1 69//1
f 67//10 14//10 15//10 68//10
f 75//8 62//8 14//8 67//8
f 66//8 63//8 22//8 26//8
f 56//1 53//1 24//1 28//1
f 65//1 64//1 23//1 29//1
f 55//8 54//8 21//8 30//8
f 48//5 6//5 24//5 53//5
f 60//6 12//6 23//6 64//6
f 26//8 22//8 42//8 43//8
f 52//11 17//11 29//11 56//11
f 57//6 4//6 22//6 63//6
f 51//11 13//11 19//11 55//11
f 24//12 6//12 35//12 45//12
f 49//5 10//5 21//5 54//5
f 31//9 32//9 41//9 40//9
f 36//10 33//10 34//10 37//10
f 33//10 36//10 43//10 42//10
f 38//9 35//9 32//9 31//9
f 37//10 34//10 44//10 39//10
f 35//9 38//9 46//9 45//9
f 16//13 28//13 46//13 38//13
f 20//8 19//8 40//8 41//8
f 14//3 26//3 43//3 36//3
f 27//3 15//3 37//3 39//3
f 6//12 2//12 32//12 35//12
f 22//2 4//2 33//2 42//2
f 2//12 20//12 41//12 32//12
f 4//2 8//2 34//2 33//2
f 19//13 13//13 31//13 40//13
f 13//13 16//13 38//13 31//13
f 2//5 49//5 54//5 20//5
f 18//11 51//11 55//11 30//11
f 16//11 52//11 56//11 28//11
f 12//5 48//5 53//5 23//5
f 19//8 20//8 54//8 55//8
f 29//1 23//1 53//1 56//1
f 70//1 17//1 52//1 73//1
f 72//8 13//8 51//8 74//8
f 12//5 10//5 49//5 48//5
f 9//4 11//4 50//4 47//4
f 10//6 57//6 63//6 21//6
f 8//6 60//6 64//6 25//6
f 27//1 25//1 64//1 65//1
f 30//8 21//8 63//8 66//8
f 71//8 18//8 62//8 75//8
f 68//1 15//1 61//1 76//1
f 17//7 61//7 65//7 29//7
f 14//7 62//7 66//7 26//7
f 3//4 7//4 58//4 59//4
f 8//6 4//6 57//6 60//6
f 7//1 68//1 76//1 58//1
f 9//8 71//8 75//8 59//8
f 1//8 72//8 74//8 47//8
f 59//8 75//8 67//8 3//8
f 3//10 67//10 68//10 7//10
f 50//1 73//1 69//1 5//1
f 5//9 69//9 72//9 1//9
f 47//8 74//8 71//8 9//8
